<?xml version="1.0" encoding="UTF-8" standalone="no"?>
<svg width="64px" height="56px" viewBox="0 0 64 56" version="1.1" xmlns="http://www.w3.org/2000/svg" xmlns:xlink="http://www.w3.org/1999/xlink" xmlns:sketch="http://www.bohemiancoding.com/sketch/ns">
    <!-- Generator: Sketch 3.5.1 (25234) - http://www.bohemiancoding.com/sketch -->
    <title>Group</title>
    <desc>Created with Sketch.</desc>
    <defs></defs>
    <g id="Page-1" stroke="none" stroke-width="1" fill="none" fill-rule="evenodd" sketch:type="MSPage">
        <g id="Group" sketch:type="MSLayerGroup" transform="translate(0.000000, -4.000000)">
            <rect id="Rectangle-1" sketch:type="MSShapeGroup" x="0" y="0" width="64" height="64"></rect>
            <path d="M64.0010156,13.4345156 C63.9510156,12.7445156 54.7060156,7.77451556 54.5590156,7.77451556 C54.4120156,7.77451556 43.8450156,25.4465156 43.6990156,25.4945156 C43.5510156,25.5445156 39.7840156,5.31151556 39.2950156,4.13051556 C38.8050156,2.94951556 0.0910156253,10.1555156 0.0110156253,10.7775156 C-0.330984375,13.4355156 7.39801563,59.2675156 8.23101563,59.9575156 C9.06101563,60.6455156 48.5410156,53.1635156 48.8350156,52.7205156 C49.1290156,52.2775156 47.2210156,42.5305156 47.2700156,41.7905156 C47.3180156,41.0525156 64.0500156,14.1245156 64.0000156,13.4355156 L64.0010156,13.4345156 Z M9.79601563,57.8375156 C9.60101563,57.3455156 2.01801563,14.8125156 2.06601563,12.2525156 C2.07001563,12.0965156 37.5360156,6.44251556 37.7310156,6.73851556 C37.9270156,7.03251556 41.9380156,28.1025156 41.8890156,28.4965156 C41.8390156,28.8905156 38.9540156,32.6805156 38.8070156,32.6805156 C38.6600156,32.6805156 24.2270156,21.3085156 23.8870156,21.3085156 C23.5440156,21.3085156 15.2270156,30.1205156 15.3740156,30.6615156 C15.5210156,31.2035156 40.6170156,50.6485156 41.1070156,50.8945156 C41.5970156,51.1405156 45.4610156,44.8885156 45.6070156,45.1345156 C45.7550156,45.3805156 46.3420156,51.3375156 46.3420156,51.3375156 C46.3420156,51.3375156 9.99101563,58.3295156 9.79701563,57.8365156 L9.79601563,57.8375156 Z M47.0010156,38.0235156 C46.8180156,38.0235156 44.1390156,36.0295156 43.9910156,36.0295156 C43.8450156,36.0295156 43.4050156,37.1375156 43.4050156,37.1375156 L46.2300156,39.1675156 L45.0180156,41.0515156 C50.7790156,-0.000484436818 42.3030156,39.2415156 42.1180156,39.2415156 C41.9360156,39.2415156 41.3120156,40.0175156 41.5680156,40.2395156 C41.8260156,40.4615156 44.5040156,42.0115156 44.4680156,42.1965156 C44.4310156,42.3815156 43.1480156,44.5595156 43.0380156,44.5595156 C42.9280156,44.5595156 39.4050156,41.6425156 39.2950156,41.6425156 C39.1850156,41.6425156 38.3410156,42.2705156 38.6710156,42.6395156 C39.0010156,43.0095156 42.2310156,45.6295156 42.1940156,45.7395156 C42.1570156,45.8515156 41.4970156,47.7345156 41.2040156,47.6235156 C40.9090156,47.5135156 18.1610156,30.6035156 18.3080156,30.0135156 C18.4550156,29.4215156 23.6040156,24.4135156 23.9830156,24.1665156 C24.2730156,23.9765156 38.2190156,36.3265156 38.9530156,35.8335156 C39.6870156,35.3415156 55.0970156,10.8735156 55.5370156,10.9735156 C55.9770156,11.0715156 60.7720156,14.3705156 60.7720156,14.3705156 L52.2110156,28.5495156 C0.101015625,-0.000484436818 50.6710156,27.6895156 50.5610156,27.7245156 C50.4510156,27.7615156 50.0110156,28.5745156 50.1930156,28.6845156 C50.3760156,28.7945156 51.5870156,29.4965156 51.5870156,29.4965156 C51.5870156,29.4965156 50.5970156,31.8595156 50.4870156,31.8225156 C50.3770156,31.7865156 48.8350156,30.8265156 48.6870156,30.8265156 C48.5390156,30.8265156 48.1010156,31.7495156 48.2110156,31.8235156 C48.3210156,31.8985156 49.9350156,32.9695156 49.9350156,32.9695156 L48.7980156,35.0735156 C0.101015625,-0.000484436818 46.5230156,33.7435156 46.4130156,33.7435156 C46.3030156,33.7435156 45.7530156,34.7785156 45.8990156,34.8895156 C46.0460156,34.9995156 48.0640156,36.3665156 48.0640156,36.3665156 C48.0640156,36.3665156 47.1840156,38.0265156 47.0010156,38.0265156 L47.0010156,38.0235156 Z M35.2610156,12.4735156 C35.1870156,12.3635156 7.62701563,16.0085156 7.37501563,16.3885156 C7.30201563,16.4985156 7.19201563,17.5685156 7.37501563,17.7165156 C7.55801563,17.8645156 35.3700156,14.1365156 35.5170156,13.9505156 C35.6630156,13.7655156 35.3330156,12.5845156 35.2600156,12.4735156 L35.2610156,12.4735156 Z M19.2980156,24.3995156 C19.2980156,24.2895156 8.98801563,25.7295156 8.54801563,25.9495156 C8.54801563,25.9495156 8.69501563,26.9475156 8.80501563,27.1695156 C8.91501563,27.3895156 18.1980156,25.8395156 18.4180156,25.7655156 C18.6380156,25.6915156 19.2980156,24.5105156 19.2980156,24.3995156 L19.2980156,24.3995156 Z M29.3150156,24.4365156 C0.101015625,-0.000484436818 36.4700156,23.4025156 36.5050156,23.2915156 C36.5430156,23.1815156 36.3230156,21.9615156 36.2130156,21.9615156 C36.1030156,21.9615156 28.1410156,23.2175156 27.8110156,23.2915156 C27.6310156,23.3315156 29.3160156,24.4365156 29.3160156,24.4365156 L29.3150156,24.4365156 Z M21.1710156,37.8025156 C20.9870156,37.7285156 10.9350156,39.0605156 10.6760156,39.2055156 C10.3460156,39.3905156 10.6030156,40.2025156 10.7490156,40.3505156 C10.8960156,40.5005156 21.9760156,38.7635156 22.2330156,38.6535156 C22.4910156,38.5415156 21.3530156,37.8765156 21.1700156,37.8035156 L21.1710156,37.8025156 Z M28.1780156,43.6725156 C27.9580156,43.5245156 11.8480156,46.4275156 11.5940156,46.4785156 C11.2270156,46.5515156 11.5940156,47.2885156 11.7770156,47.5115156 C11.9600156,47.7335156 28.9120156,44.6685156 29.0950156,44.5575156 C29.2780156,44.4465156 28.3990156,43.8175156 28.1780156,43.6705156 L28.1780156,43.6725156 Z M32.0680156,48.6925156 C31.8110156,48.5825156 12.7060156,51.7605156 12.4010156,51.9795156 C12.1440156,52.1645156 12.4380156,53.0135156 12.6940156,53.1245156 C12.9510156,53.2345156 32.6170156,49.3215156 32.6170156,49.3215156 C32.6170156,49.3215156 32.3240156,48.8045156 32.0670156,48.6935156 L32.0680156,48.6925156 Z M21.7580156,29.9025156 C0.101015625,-0.000484436818 22.2340156,29.0895156 22.3080156,28.9045156 C22.3800156,28.7195156 21.7600156,28.0695156 21.6480156,28.0925156 C21.4640156,28.1295156 20.2160156,29.8275156 19.9960156,30.1605156 C19.7760156,30.4935156 24.2160156,33.5205156 24.5820156,33.7055156 C24.9500156,33.8905156 25.0970156,33.2995156 25.1700156,32.9305156 C25.2440156,32.5605156 21.7580156,29.9025156 21.7580156,29.9025156 L21.7580156,29.9025156 Z" id="Shape" fill="#FFFFFF" sketch:type="MSShapeGroup"></path>
        </g>
    </g>
</svg>