<?xml version="1.0" encoding="UTF-8" standalone="no"?>
<svg width="25px" height="25px" viewBox="0 0 25 25" version="1.1" xmlns="http://www.w3.org/2000/svg" xmlns:xlink="http://www.w3.org/1999/xlink" xmlns:sketch="http://www.bohemiancoding.com/sketch/ns">
    <!-- Generator: Sketch 3.5.1 (25234) - http://www.bohemiancoding.com/sketch -->
    <title>Untitled</title>
    <desc>Created with Sketch.</desc>
    <defs></defs>
    <g id="Page-1" stroke="none" stroke-width="1" fill="none" fill-rule="evenodd" sketch:type="MSPage">
        <g id="hamburger" sketch:type="MSLayerGroup" fill="#FFFFFF">
            <g id="TabBar-Icons" sketch:type="MSShapeGroup">
                <g id="Hamburger-Round">
                    <path d="M0,2.5 C0,1.11928812 0.889763236,0 2.00359486,0 L22.9964051,0 C24.10296,0 25,1.10966205 25,2.5 C25,3.88071188 24.1102368,5 22.9964051,5 L2.00359486,5 C0.897039974,5 0,3.89033795 0,2.5 L0,2.5 L0,2.5 Z M0,12.5 C0,11.1192881 0.889763236,10 2.00359486,10 L22.9964051,10 C24.10296,10 25,11.109662 25,12.5 C25,13.8807119 24.1102368,15 22.9964051,15 L2.00359486,15 C0.897039974,15 0,13.890338 0,12.5 L0,12.5 L0,12.5 Z M0,22.5 C0,21.1192881 0.889763236,20 2.00359486,20 L22.9964051,20 C24.10296,20 25,21.109662 25,22.5 C25,23.8807119 24.1102368,25 22.9964051,25 L2.00359486,25 C0.897039974,25 0,23.890338 0,22.5 L0,22.5 L0,22.5 Z" id="Hamburger"></path>
                </g>
            </g>
        </g>
    </g>
</svg>