<?xml version="1.0" encoding="UTF-8" standalone="no"?>
<svg width="26px" height="22px" viewBox="0 0 26 22" version="1.1" xmlns="http://www.w3.org/2000/svg" xmlns:xlink="http://www.w3.org/1999/xlink" xmlns:sketch="http://www.bohemiancoding.com/sketch/ns">
    <!-- Generator: Sketch 3.5.1 (25234) - http://www.bohemiancoding.com/sketch -->
    <title>Group</title>
    <desc>Created with Sketch.</desc>
    <defs></defs>
    <g id="Page-1" stroke="none" stroke-width="1" fill="none" fill-rule="evenodd" sketch:type="MSPage">
        <g id="Group" sketch:type="MSLayerGroup" transform="translate(0.000000, -2.000000)">
            <rect id="Rectangle-1" sketch:type="MSShapeGroup" x="0" y="0" width="26" height="26"></rect>
            <g id="page" transform="translate(0.000000, 2.000000)" fill="#FFFFFF" sketch:type="MSShapeGroup">
                <path d="M8.602,13.279 L7.136,18.398 L12.256,16.933 L22.134,7.056 L18.48,3.401 L8.602,13.279 L8.602,13.279 Z M18.979,5.632 C19.195,5.849 19.195,6.203 18.979,6.419 L11.256,14.141 C11.039,14.358 10.686,14.358 10.47,14.141 C10.253,13.924 10.253,13.571 10.47,13.354 L18.192,5.632 C18.409,5.416 18.763,5.416 18.979,5.632 L18.979,5.632 Z M25.526,3.645 L23.11,6.062 L19.464,2.417 L21.882,0 L25.526,3.645 L25.526,3.645 Z M15.471,15.984 L17.284,14.172 L17.284,21.711 L0,21.711 L0,4.657 L5.122,0.307 L17.285,0.307 L17.285,2.595 L15.472,4.439 L15.472,1.838 L7.065,1.838 L7.065,6.325 L1.812,6.325 L1.812,20.181 L15.471,20.181 L15.471,15.984 L15.471,15.984 Z" id="Shape"></path>
            </g>
        </g>
    </g>
</svg>