<?xml version="1.0" encoding="UTF-8" standalone="no"?>
<svg
   xmlns:dc="http://purl.org/dc/elements/1.1/"
   xmlns:cc="http://creativecommons.org/ns#"
   xmlns:rdf="http://www.w3.org/1999/02/22-rdf-syntax-ns#"
   xmlns:svg="http://www.w3.org/2000/svg"
   xmlns="http://www.w3.org/2000/svg"
   xmlns:sodipodi="http://sodipodi.sourceforge.net/DTD/sodipodi-0.dtd"
   xmlns:inkscape="http://www.inkscape.org/namespaces/inkscape"
   height="64"
   version="1.1"
   viewBox="0 0 64 64"
   width="64"
   id="svg2"
   inkscape:version="0.91 r13725"
   sodipodi:docname="push_white.svg">
  <metadata
     id="metadata16">
    <rdf:RDF>
      <cc:Work
         rdf:about="">
        <dc:format>image/svg+xml</dc:format>
        <dc:type
           rdf:resource="http://purl.org/dc/dcmitype/StillImage" />
        <dc:title></dc:title>
      </cc:Work>
    </rdf:RDF>
  </metadata>
  <sodipodi:namedview
     pagecolor="#ffffff"
     bordercolor="#666666"
     borderopacity="1"
     objecttolerance="10"
     gridtolerance="10"
     guidetolerance="10"
     inkscape:pageopacity="0"
     inkscape:pageshadow="2"
     inkscape:window-width="1280"
     inkscape:window-height="698"
     id="namedview14"
     showgrid="false"
     inkscape:zoom="9.8333333"
     inkscape:cx="8.440678"
     inkscape:cy="40.474576"
     inkscape:window-x="0"
     inkscape:window-y="1"
     inkscape:window-maximized="1"
     inkscape:current-layer="miu" />
  <desc
     id="desc6" />
  <defs
     id="defs8" />
  <g
     id="miu"
     style="fill:none;fill-rule:evenodd;stroke:none;stroke-width:1"
     transform="matrix(2.6654245,0,0,2.6654245,0.0228775,-0.1047635)">
    <g
       id="Artboard-1"
       transform="translate(-791,-443)">
      <g
         id="slice"
         transform="translate(215,119)" />
      <path
         d="M 797,445.11133 C 796.98619,445.04407 796.97778,445 796.97778,445 L 796,445 l 0,21 0.97778,0 0,-19.13832 c 0.007,0.005 0.0148,0.0103 0.0222,0.0154 l 0,-1.76572 z m 1,1.21353 c 1.07378,0.49255 2.48627,0.34586 4.33962,-0.75516 2.87723,-1.70927 5.02002,-1.76931 6.73991,-1.02979 0.35875,0.15425 0.60751,0.31467 0.74712,0.43469 l 0.17018,0.1463 0,8.10281 0,1.06501 -0.8076,-0.69428 c -0.0676,-0.0581 -0.23322,-0.16492 -0.49593,-0.27789 -1.42671,-0.61345 -3.24101,-0.5803 -5.85429,0.97217 -1.80831,1.07427 -3.51209,1.12955 -4.77114,0.80559 l 0,-1.01663 c 1.03917,0.35993 2.56353,0.38521 4.27175,-0.62959 2.87723,-1.70928 5.02002,-1.76931 6.73991,-1.0298 l 0,-6.71841 c 0,0 -0.12352,-0.14875 -0.38623,-0.26171 -1.42671,-0.61346 -3.24101,-0.58031 -5.85429,0.97216 -1.92076,1.14107 -3.53884,1.38505 -4.83901,0.96207 l 0,-1.04754 z"
         id="editor-flag-notification-outline-stroke"
         inkscape:connector-curvature="0"
         style="fill:#ffffff;fill-opacity:1" />
    </g>
  </g>
</svg>
